<?xml version="1.0" encoding="UTF-8"?>
<svg xmlns="http://www.w3.org/2000/svg" version="1.1" xmlns:xlink="http://www.w3.org/1999/xlink" viewBox="0 0 519.13 416.41">
  <!-- Generator: Adobe Illustrator 29.4.0, SVG Export Plug-In . SVG Version: 2.1.0 Build 152)  -->
  <defs>
    <style>
      .st0 {
        font-size: 27.2px;
        letter-spacing: .5em;
      }

      .st0, .st1, .st2, .st3 {
        font-family: TimesNewRomanPSMT, 'Times New Roman';
      }

      .st0, .st4, .st5, .st6, .st3, .st7, .st8 {
        fill: #1b75bb;
      }

      .st9 {
        fill: url(#linear-gradient2);
      }

      .st1 {
        fill: #4d80ff;
      }

      .st1, .st2 {
        font-size: 34.16px;
        letter-spacing: .3em;
      }

      .st10 {
        fill: url(#linear-gradient36);
      }

      .st11 {
        fill: url(#linear-gradient39);
      }

      .st12 {
        fill: url(#linear-gradient34);
      }

      .st4 {
        font-family: FootlightMTLight, 'Footlight MT Light';
        font-size: 100.64px;
      }

      .st13, .st5, .st14, .st15 {
        font-family: CalifornianFB-Reg, 'Californian FB';
      }

      .st13, .st14, .st16 {
        fill: #fff;
      }

      .st13, .st15 {
        font-size: 39.57px;
        letter-spacing: .4em;
      }

      .st17 {
        filter: url(#drop-shadow-9);
      }

      .st18 {
        filter: url(#drop-shadow-2);
      }

      .st19 {
        fill: url(#linear-gradient33);
      }

      .st20 {
        fill: url(#linear-gradient10);
      }

      .st21 {
        fill: #0084c3;
      }

      .st22 {
        filter: url(#drop-shadow-7);
      }

      .st22, .st23 {
        font-family: Gazpacho-Bold, Gazpacho;
        font-size: 126.43px;
        font-weight: 700;
      }

      .st22, .st23, .st24 {
        fill: #1272c9;
      }

      .st25 {
        filter: url(#drop-shadow-6);
      }

      .st5, .st14 {
        font-size: 83.75px;
      }

      .st26 {
        fill: url(#linear-gradient32);
      }

      .st27 {
        fill: url(#linear-gradient21);
      }

      .st28 {
        fill: url(#linear-gradient37);
      }

      .st29 {
        fill: url(#linear-gradient27);
      }

      .st30 {
        filter: url(#drop-shadow-5);
      }

      .st31 {
        fill: url(#linear-gradient35);
      }

      .st32 {
        fill: url(#linear-gradient26);
      }

      .st33 {
        fill: url(#linear-gradient1);
      }

      .st34 {
        fill: url(#linear-gradient9);
      }

      .st35 {
        fill: url(#linear-gradient18);
      }

      .st36 {
        fill: url(#linear-gradient23);
      }

      .st37 {
        fill: url(#linear-gradient8);
      }

      .st38 {
        fill: url(#linear-gradient11);
      }

      .st39 {
        fill: #547dbd;
      }

      .st40 {
        filter: url(#drop-shadow-8);
      }

      .st41 {
        fill: #547cbf;
      }

      .st42 {
        fill: url(#linear-gradient16);
      }

      .st43 {
        fill: url(#linear-gradient24);
      }

      .st23 {
        filter: url(#drop-shadow-4);
      }

      .st2 {
        fill: #1b3687;
      }

      .st44 {
        fill: url(#linear-gradient30);
      }

      .st45 {
        filter: url(#drop-shadow-1);
      }

      .st46 {
        fill: url(#linear-gradient22);
      }

      .st6 {
        font-size: 171.98px;
      }

      .st6, .st7, .st47 {
        font-family: Gabriola, Gabriola;
        opacity: .97;
      }

      .st48 {
        isolation: isolate;
      }

      .st49 {
        fill: url(#linear-gradient29);
      }

      .st50 {
        fill: url(#linear-gradient19);
      }

      .st51 {
        fill: url(#linear-gradient12);
      }

      .st52 {
        fill: url(#linear-gradient28);
      }

      .st53 {
        fill: url(#linear-gradient40);
      }

      .st3 {
        font-size: 87.63px;
      }

      .st7 {
        font-size: 177.28px;
      }

      .st54 {
        fill: url(#linear-gradient7);
      }

      .st55 {
        fill: url(#linear-gradient20);
      }

      .st56 {
        fill: url(#linear-gradient4);
      }

      .st57 {
        fill: url(#linear-gradient31);
      }

      .st58 {
        fill: url(#Degradado_sin_nombre_565);
      }

      .st58, .st59, .st60 {
        mix-blend-mode: color-burn;
      }

      .st59 {
        fill: url(#Degradado_sin_nombre_5652);
      }

      .st61 {
        fill: url(#linear-gradient14);
      }

      .st62 {
        fill: url(#linear-gradient5);
      }

      .st63 {
        fill: url(#linear-gradient3);
      }

      .st64 {
        fill: url(#linear-gradient38);
      }

      .st65 {
        fill: url(#linear-gradient25);
      }

      .st66 {
        fill: #00a6b3;
      }

      .st67 {
        fill: url(#linear-gradient15);
      }

      .st68 {
        fill: #404041;
      }

      .st69 {
        filter: url(#drop-shadow-3);
      }

      .st70 {
        fill: url(#linear-gradient17);
      }

      .st71 {
        fill: url(#linear-gradient6);
      }

      .st47 {
        fill: #131516;
        font-size: 113.36px;
        letter-spacing: .2em;
      }

      .st72 {
        fill: url(#linear-gradient13);
      }

      .st73 {
        fill: #537dbe;
      }

      .st74 {
        fill: url(#linear-gradient);
      }

      .st75 {
        fill: url(#linear-gradient41);
      }

      .st60 {
        fill: url(#Degradado_sin_nombre_5651);
      }
    </style>
    <linearGradient id="linear-gradient" x1="-652.39" y1="1458.42" x2="-595.95" y2="1458.42" gradientUnits="userSpaceOnUse">
      <stop offset="0" stop-color="#0066c0"/>
      <stop offset=".01" stop-color="#066ac2"/>
      <stop offset=".05" stop-color="#2782cd"/>
      <stop offset=".09" stop-color="#4396d7"/>
      <stop offset=".14" stop-color="#58a5de"/>
      <stop offset=".18" stop-color="#67b0e4"/>
      <stop offset=".24" stop-color="#70b7e7"/>
      <stop offset=".33" stop-color="#73b9e8"/>
      <stop offset="1" stop-color="#bfe6f5"/>
    </linearGradient>
    <linearGradient id="linear-gradient1" x1="-597.64" y1="1328" x2="-324.09" y2="1328" gradientUnits="userSpaceOnUse">
      <stop offset="0" stop-color="#ffe7e4"/>
      <stop offset=".26" stop-color="#ffd8d4"/>
      <stop offset=".77" stop-color="#ffb4ab"/>
      <stop offset="1" stop-color="#ffa297"/>
    </linearGradient>
    <linearGradient id="linear-gradient2" x1="-569.8" y1="1406.95" x2="-428.74" y2="1406.95" xlink:href="#linear-gradient"/>
    <linearGradient id="linear-gradient3" x1="-652.99" y1="1458.42" x2="-345.62" y2="1458.42" gradientUnits="userSpaceOnUse">
      <stop offset="0" stop-color="#ff4a4a"/>
      <stop offset=".14" stop-color="#ff624e"/>
      <stop offset=".55" stop-color="#ffa458"/>
      <stop offset=".85" stop-color="#ffcd5f"/>
      <stop offset="1" stop-color="#ffdd62"/>
    </linearGradient>
    <linearGradient id="linear-gradient4" x1="-599.79" y1="1329.09" x2="-184.53" y2="1433.6" xlink:href="#linear-gradient"/>
    <linearGradient id="linear-gradient5" x1="635.37" y1="1871.13" x2="484.04" y2="1630.37" gradientUnits="userSpaceOnUse">
      <stop offset=".09" stop-color="#2b3990"/>
      <stop offset=".12" stop-color="#274599"/>
      <stop offset=".19" stop-color="#225aa8"/>
      <stop offset=".27" stop-color="#1e69b3"/>
      <stop offset=".36" stop-color="#1c72ba"/>
      <stop offset=".51" stop-color="#1c75bc"/>
      <stop offset="1" stop-color="#bfe6f5"/>
    </linearGradient>
    <linearGradient id="linear-gradient6" x1="463.08" y1="1809.43" x2="626.43" y2="1809.43" gradientUnits="userSpaceOnUse">
      <stop offset="0" stop-color="#ee2a7b"/>
      <stop offset=".23" stop-color="#de297e"/>
      <stop offset=".66" stop-color="#b52887"/>
      <stop offset="1" stop-color="#92278f"/>
    </linearGradient>
    <linearGradient id="linear-gradient7" x1="492.09" y1="1774.75" x2="574.07" y2="1774.75" xlink:href="#linear-gradient3"/>
    <linearGradient id="linear-gradient8" x1="559.04" y1="1806.18" x2="621.54" y2="1806.18" xlink:href="#linear-gradient"/>
    <linearGradient id="linear-gradient9" x1="207.13" y1="1737.57" x2="207.56" y2="1737.57" gradientUnits="userSpaceOnUse">
      <stop offset="0" stop-color="#be1e2d"/>
      <stop offset=".01" stop-color="#bf1f2d"/>
      <stop offset=".07" stop-color="#d42e31"/>
      <stop offset=".13" stop-color="#e33833"/>
      <stop offset=".21" stop-color="#ec3f35"/>
      <stop offset=".33" stop-color="#ef4136"/>
      <stop offset="1" stop-color="#fbb040"/>
    </linearGradient>
    <linearGradient id="linear-gradient10" x1="870.13" y1="2409.47" x2="644.73" y2="2050.88" xlink:href="#linear-gradient5"/>
    <linearGradient id="linear-gradient11" x1="613.51" y1="2317.57" x2="856.81" y2="2317.57" xlink:href="#linear-gradient6"/>
    <linearGradient id="linear-gradient12" x1="656.72" y1="2265.93" x2="778.82" y2="2265.93" xlink:href="#linear-gradient3"/>
    <linearGradient id="linear-gradient13" x1="756.13" y1="2312.73" x2="849.21" y2="2312.73" xlink:href="#linear-gradient"/>
    <linearGradient id="linear-gradient14" x1="232.31" y1="2210.54" x2="232.95" y2="2210.54" xlink:href="#linear-gradient9"/>
    <linearGradient id="linear-gradient15" x1="-406.49" y1="2323.2" x2="-631.89" y2="1964.61" xlink:href="#linear-gradient5"/>
    <linearGradient id="linear-gradient16" x1="-663.1" y1="2231.3" x2="-419.81" y2="2231.3" xlink:href="#linear-gradient6"/>
    <linearGradient id="linear-gradient17" x1="-619.9" y1="2179.66" x2="-497.8" y2="2179.66" xlink:href="#linear-gradient3"/>
    <linearGradient id="linear-gradient18" x1="-520.49" y1="2226.46" x2="-427.4" y2="2226.46" xlink:href="#linear-gradient"/>
    <linearGradient id="linear-gradient19" x1="-1044.31" y1="2124.27" x2="-1043.67" y2="2124.27" xlink:href="#linear-gradient9"/>
    <filter id="drop-shadow-1" x="-854.06" y="-11.81" width="275.04" height="263.52" filterUnits="userSpaceOnUse">
      <feOffset dx="13" dy="7"/>
      <feGaussianBlur result="blur" stdDeviation="12"/>
      <feFlood flood-color="#000" flood-opacity=".53"/>
      <feComposite in2="blur" operator="in"/>
      <feComposite in="SourceGraphic"/>
    </filter>
    <linearGradient id="linear-gradient20" x1="-653.39" y1="194.01" x2="-809.43" y2="-54.22" xlink:href="#linear-gradient5"/>
    <linearGradient id="linear-gradient21" x1="-831.04" y1="130.39" x2="-662.61" y2="130.39" xlink:href="#linear-gradient6"/>
    <linearGradient id="linear-gradient22" x1="-801.13" y1="94.64" x2="-716.6" y2="94.64" xlink:href="#linear-gradient3"/>
    <linearGradient id="linear-gradient23" x1="-732.31" y1="127.04" x2="-667.87" y2="127.04" xlink:href="#linear-gradient"/>
    <linearGradient id="linear-gradient24" x1="-1094.92" y1="56.3" x2="-1094.48" y2="56.3" xlink:href="#linear-gradient9"/>
    <filter id="drop-shadow-2" x="117.2" y="48.91" width="310.56" height="296.88" filterUnits="userSpaceOnUse">
      <feOffset dx="13" dy="7"/>
      <feGaussianBlur result="blur1" stdDeviation="12"/>
      <feFlood flood-color="#000" flood-opacity=".53"/>
      <feComposite in2="blur1" operator="in"/>
      <feComposite in="SourceGraphic"/>
    </filter>
    <linearGradient id="linear-gradient25" x1="349.06" y1="285.52" x2="165.77" y2="-6.09" xlink:href="#linear-gradient5"/>
    <linearGradient id="linear-gradient26" x1="140.38" y1="210.79" x2="338.23" y2="210.79" xlink:href="#linear-gradient6"/>
    <linearGradient id="linear-gradient27" x1="175.52" y1="168.79" x2="274.81" y2="168.79" xlink:href="#linear-gradient3"/>
    <linearGradient id="linear-gradient28" x1="256.36" y1="206.85" x2="332.05" y2="206.85" xlink:href="#linear-gradient"/>
    <linearGradient id="linear-gradient29" x1="-169.61" y1="123.75" x2="-169.09" y2="123.75" xlink:href="#linear-gradient9"/>
    <linearGradient id="linear-gradient30" x1="-762.79" y1="810.84" x2="-762.79" y2="939.94" gradientUnits="userSpaceOnUse">
      <stop offset="0" stop-color="#f7941d"/>
      <stop offset=".47" stop-color="#e7433b"/>
      <stop offset="1" stop-color="#1c6eb7"/>
    </linearGradient>
    <linearGradient id="linear-gradient31" x1="-737.36" y1="863.4" x2="-707.1" y2="931.27" gradientUnits="userSpaceOnUse">
      <stop offset="0" stop-color="#d14849"/>
      <stop offset=".47" stop-color="#e7433b"/>
      <stop offset="1" stop-color="#1c6eb7"/>
    </linearGradient>
    <filter id="drop-shadow-3" x="-1046.66" y="211.99" width="217.2" height="159.36" filterUnits="userSpaceOnUse">
      <feOffset dx="7" dy="7"/>
      <feGaussianBlur result="blur2" stdDeviation="5"/>
      <feFlood flood-color="#060707" flood-opacity=".25"/>
      <feComposite in2="blur2" operator="in"/>
      <feComposite in="SourceGraphic"/>
    </filter>
    <linearGradient id="linear-gradient32" x1="-872.85" y1="230.31" x2="-964.34" y2="269.52" gradientUnits="userSpaceOnUse">
      <stop offset="0" stop-color="#f7941d"/>
      <stop offset=".24" stop-color="#e7433b"/>
      <stop offset="1" stop-color="#1c6eb7"/>
    </linearGradient>
    <filter id="drop-shadow-4" filterUnits="userSpaceOnUse">
      <feOffset dx="7" dy="7"/>
      <feGaussianBlur result="blur3" stdDeviation="5"/>
      <feFlood flood-color="#060707" flood-opacity=".25"/>
      <feComposite in2="blur3" operator="in"/>
      <feComposite in="SourceGraphic"/>
    </filter>
    <filter id="drop-shadow-5" x="-1949.2" y="-11.81" width="275.04" height="263.52" filterUnits="userSpaceOnUse">
      <feOffset dx="13" dy="7"/>
      <feGaussianBlur result="blur4" stdDeviation="12"/>
      <feFlood flood-color="#000" flood-opacity=".53"/>
      <feComposite in2="blur4" operator="in"/>
      <feComposite in="SourceGraphic"/>
    </filter>
    <linearGradient id="linear-gradient33" x1="-1748.53" y1="194.01" x2="-1904.56" y2="-54.22" xlink:href="#linear-gradient5"/>
    <linearGradient id="linear-gradient34" x1="-1926.17" y1="130.39" x2="-1757.75" y2="130.39" xlink:href="#linear-gradient6"/>
    <linearGradient id="linear-gradient35" x1="-1896.26" y1="94.64" x2="-1811.74" y2="94.64" xlink:href="#linear-gradient3"/>
    <linearGradient id="linear-gradient36" x1="-1827.44" y1="127.04" x2="-1763.01" y2="127.04" xlink:href="#linear-gradient"/>
    <linearGradient id="linear-gradient37" x1="-2190.05" y1="56.3" x2="-2189.61" y2="56.3" xlink:href="#linear-gradient9"/>
    <filter id="drop-shadow-6" x="-2141.8" y="211.99" width="217.2" height="159.36" filterUnits="userSpaceOnUse">
      <feOffset dx="7" dy="7"/>
      <feGaussianBlur result="blur5" stdDeviation="5"/>
      <feFlood flood-color="#060707" flood-opacity=".25"/>
      <feComposite in2="blur5" operator="in"/>
      <feComposite in="SourceGraphic"/>
    </filter>
    <linearGradient id="linear-gradient38" x1="-1967.99" y1="230.31" x2="-2059.48" y2="269.52" xlink:href="#linear-gradient32"/>
    <filter id="drop-shadow-7" filterUnits="userSpaceOnUse">
      <feOffset dx="7" dy="7"/>
      <feGaussianBlur result="blur6" stdDeviation="5"/>
      <feFlood flood-color="#060707" flood-opacity=".25"/>
      <feComposite in2="blur6" operator="in"/>
      <feComposite in="SourceGraphic"/>
    </filter>
    <filter id="drop-shadow-8" x="-2439.4" y="691.03" width="84.96" height="116.4" filterUnits="userSpaceOnUse">
      <feOffset dx="7" dy="7"/>
      <feGaussianBlur result="blur7" stdDeviation="5"/>
      <feFlood flood-color="#060707" flood-opacity=".25"/>
      <feComposite in2="blur7" operator="in"/>
      <feComposite in="SourceGraphic"/>
    </filter>
    <filter id="drop-shadow-9" x="-2718.04" y="-435.77" width="238.32" height="201.6" filterUnits="userSpaceOnUse">
      <feOffset dx="7" dy="7"/>
      <feGaussianBlur result="blur8" stdDeviation="5"/>
      <feFlood flood-color="#060707" flood-opacity=".25"/>
      <feComposite in2="blur8" operator="in"/>
      <feComposite in="SourceGraphic"/>
    </filter>
    <linearGradient id="Degradado_sin_nombre_565" data-name="Degradado sin nombre 565" x1="-2643.84" y1="-310" x2="-2530.38" y2="-310" gradientUnits="userSpaceOnUse">
      <stop offset="0" stop-color="#fff" stop-opacity="0"/>
      <stop offset=".13" stop-color="#ebf5f7" stop-opacity=".07"/>
      <stop offset=".36" stop-color="#b9dae3" stop-opacity=".27"/>
      <stop offset=".66" stop-color="#66afc3" stop-opacity=".6"/>
      <stop offset="1" stop-color="#007a9b"/>
    </linearGradient>
    <linearGradient id="linear-gradient39" x1="-2504.33" y1="-310.91" x2="-2590.55" y2="-359.07" xlink:href="#linear-gradient30"/>
    <linearGradient id="linear-gradient40" x1="-2675.6" y1="-293.62" x2="-2599.25" y2="-346.59" xlink:href="#linear-gradient30"/>
    <linearGradient id="linear-gradient41" x1="-2517.53" y1="-287.29" x2="-2603.74" y2="-335.45" xlink:href="#linear-gradient30"/>
    <linearGradient id="Degradado_sin_nombre_5651" data-name="Degradado sin nombre 565" x1="-2709.87" y1="-369.49" x2="-2584.67" y2="-369.49" xlink:href="#Degradado_sin_nombre_565"/>
    <linearGradient id="Degradado_sin_nombre_5652" data-name="Degradado sin nombre 565" x1="-2609.31" y1="-356.34" x2="-2527.43" y2="-356.34" xlink:href="#Degradado_sin_nombre_565"/>
  </defs>
  <g class="st48">
    <g id="Layer_1">
      <text class="st7" transform="translate(688 1849.79)"><tspan x="0" y="0">VS TECH WAVES</tspan></text>
      <path class="st8" d="M-1888.66,1890.7c-51.9-.07-94.18,42.15-94.18,94.05,0,13.45,2.83,26.24,7.92,37.81-10.02,9.69-8.99,23.24-8.99,23.24.16-.74.38-1.47.6-2.19.59-1.87,1.31-3.71,2.13-5.49,1.17-2.52,2.55-4.93,4.16-7.19,1.92-2.71,4.17-5.19,6.71-7.33,2.91-2.45,6.21-4.43,9.75-5.85,4.2-1.68,8.69-2.54,13.2-2.75,5.83-.27,11.67.52,17.32,1.9,6.29,1.54,12.67,2.58,19.13,3.06,6.3.46,12.63.42,18.92-.12,5.97-.51,11.9-1.47,17.7-2.97,5.18-1.34,10.28-3.1,15.08-5.49,4.03-2.01,7.89-4.47,11.11-7.63,1.56-1.53,2.96-3.26,4.08-5.14.07,1.62-.11,3.21-.55,4.72-.85,2.94-2.65,5.77-5.35,8.42-2.72,2.67-6.14,5.01-10.45,7.16-4.32,2.15-9.09,3.89-14.57,5.3-5.44,1.4-11.25,2.38-17.28,2.89-3.31.28-6.67.43-10,.43-2.83,0-5.7-.1-8.52-.31-6.14-.45-12.43-1.45-18.7-2.99-5.49-1.35-10.75-2.03-15.63-2.03-.81,0-1.63.02-2.43.06-5.03.23-9.75,1.22-14.04,2.94-3.01,1.2-5.85,2.78-8.46,4.7-.53.39-.7,1.11-.37,1.68,0,0,0,.02.01.02.38.66,1.26.85,1.87.4,2.43-1.79,5.09-3.28,7.9-4.4,4.2-1.68,8.69-2.54,13.2-2.75,5.83-.27,11.67.52,17.32,1.9,6.29,1.54,12.67,2.58,19.13,3.06,6.3.46,12.63.42,18.92-.12,5.97-.51,11.9-1.47,17.7-2.97,5.18-1.34,10.28-3.1,15.08-5.49,4.03-2.01,7.89-4.47,11.11-7.63,2.71-2.66,4.96-5.87,6.02-9.54,1.06-3.65.81-7.51-.44-11.08-1.57-4.51-4.48-8.73-7.98-11.96-3.26-3.02-7.25-5.19-11.59-6.16-1.63-.37-3.28-.56-4.94-.61-4.33-.12-7.79-3.64-7.8-7.97h0c-.02-4.41,3.54-8.07,7.95-8.04.91,0,1.81.04,2.72.09,6.26.4,12.42,2.08,17.98,5,5.17,2.72,9.78,6.46,13.56,10.91,3.63,4.28,6.51,9.2,8.44,14.48,1.82,4.98,2.79,10.3,2.62,15.6-.16,5.24-1.6,10.34-3.74,15.11-2.1,4.68-4.99,9-8.59,12.65-3.75,3.8-8.21,6.84-13.02,9.14-5.55,2.67-11.52,4.38-17.57,5.47-7.29,1.31-14.73,1.74-22.13,1.65-8.6-.11-17.19-.91-25.7-2.1-6.75-.94-13.45-2.19-20.14-3.45-5.07-.95-10.17-1.92-15.33-2.22-4.52-.26-9.05.09-13.41,1.37-5.21,1.53-10.01,4.23-14.45,7.32-2.86,1.99-5.6,4.15-8.25,6.4h0s10.85-7.17,23.47-9.99c17.46,20.53,43.58,33.46,72.71,33.14,51.5-.56,93.19-42.9,93-94.41-.2-51.73-42.16-93.61-93.92-93.68ZM-1905.19,1934.88c-3.65.63-7.3-1.17-8.99-4.47h0c-2.5-4.87.23-10.77,5.54-12.08,37.79-9.29,64.46,26.26,64.46,26.26-23.45-13.96-49.5-11.71-61.02-9.72ZM-1830.68,1972.55c-4.07-4.79-8.89-8.67-14.33-11.53-5.79-3.04-12.36-4.87-19.02-5.3-.94-.06-1.91-.09-2.87-.1h-.06c-2.79,0-5.41,1.09-7.39,3.08-.04.04-.08.09-.12.13-.25-.77-.39-1.58-.39-2.43-.02-4.41,3.54-8.07,7.95-8.04.9,0,1.81.04,2.72.09,6.26.4,12.42,2.08,17.98,5,5.17,2.72,9.78,6.46,13.56,10.91,3.63,4.28,6.51,9.2,8.44,14.48.97,2.65,1.68,5.39,2.13,8.17-2.02-5.27-4.9-10.14-8.59-14.48ZM-1843.42,1928.53c-2.72-2.52-3.51-6.5-1.92-9.85h0c2.35-4.94,8.69-6.36,12.96-2.94,30.35,24.35,18.35,67.15,18.35,67.15-3.17-27.11-20.8-46.42-29.38-54.35Z"/>
      <text class="st5" transform="translate(-2057.09 2164.64)"><tspan x="0" y="0">VS TECH</tspan></text>
      <text class="st15" transform="translate(-1986.38 2213.21)"><tspan x="0" y="0">WAVES</tspan></text>
      <rect class="st8" x="-2390.45" y="2322.37" width="947.69" height="454.01"/>
      <path class="st16" d="M-1905.41,2379.69c-51.9-.07-94.18,42.15-94.18,94.05,0,13.45,2.83,26.24,7.92,37.81-10.02,9.69-8.99,23.24-8.99,23.24.16-.74.38-1.47.6-2.19.59-1.87,1.31-3.71,2.13-5.49,1.17-2.52,2.55-4.93,4.16-7.19,1.92-2.71,4.17-5.19,6.71-7.33,2.91-2.45,6.21-4.43,9.75-5.85,4.2-1.68,8.69-2.54,13.2-2.75,5.83-.27,11.67.52,17.32,1.9,6.29,1.54,12.67,2.58,19.13,3.06,6.3.46,12.63.42,18.92-.12,5.97-.51,11.9-1.47,17.7-2.97,5.18-1.34,10.28-3.1,15.08-5.49,4.03-2.01,7.89-4.47,11.11-7.63,1.56-1.53,2.96-3.26,4.08-5.14.07,1.62-.11,3.21-.55,4.72-.85,2.94-2.65,5.77-5.35,8.42-2.72,2.67-6.14,5.01-10.45,7.16-4.32,2.15-9.09,3.89-14.57,5.3-5.44,1.4-11.25,2.38-17.28,2.89-3.31.28-6.67.43-10,.43-2.83,0-5.7-.1-8.52-.31-6.14-.45-12.43-1.45-18.7-2.99-5.49-1.35-10.75-2.03-15.63-2.03-.81,0-1.63.02-2.43.06-5.03.23-9.75,1.22-14.04,2.94-3.01,1.2-5.85,2.78-8.46,4.7-.53.39-.7,1.11-.37,1.68,0,0,0,.02.01.02.38.66,1.26.85,1.87.4,2.43-1.79,5.09-3.28,7.9-4.4,4.2-1.68,8.69-2.54,13.2-2.75,5.83-.27,11.67.52,17.32,1.9,6.29,1.54,12.67,2.58,19.13,3.06,6.3.46,12.63.42,18.92-.12,5.97-.51,11.9-1.47,17.7-2.97,5.18-1.34,10.28-3.1,15.08-5.49,4.03-2.01,7.89-4.47,11.11-7.63,2.71-2.66,4.96-5.87,6.02-9.54,1.06-3.65.81-7.51-.44-11.08-1.57-4.51-4.48-8.73-7.98-11.96-3.26-3.02-7.25-5.19-11.59-6.16-1.63-.37-3.28-.56-4.94-.61-4.33-.12-7.79-3.64-7.8-7.97h0c-.02-4.41,3.54-8.07,7.95-8.04.91,0,1.81.04,2.72.09,6.26.4,12.42,2.08,17.98,5,5.17,2.72,9.78,6.46,13.56,10.91,3.63,4.28,6.51,9.2,8.44,14.48,1.82,4.98,2.79,10.3,2.62,15.6-.16,5.24-1.6,10.34-3.74,15.11-2.1,4.68-4.99,9-8.59,12.65-3.75,3.8-8.21,6.84-13.02,9.14-5.55,2.67-11.52,4.38-17.57,5.47-7.29,1.31-14.73,1.74-22.13,1.65-8.6-.11-17.19-.91-25.7-2.1-6.75-.94-13.45-2.19-20.14-3.45-5.07-.95-10.17-1.92-15.33-2.22-4.52-.26-9.05.09-13.41,1.37-5.21,1.53-10.01,4.23-14.45,7.32-2.86,1.99-5.6,4.15-8.25,6.4h0s10.85-7.17,23.47-9.99c17.46,20.53,43.58,33.46,72.71,33.14,51.5-.56,93.19-42.9,93-94.41-.2-51.73-42.16-93.61-93.92-93.68ZM-1921.94,2423.88c-3.65.63-7.3-1.17-8.99-4.47h0c-2.5-4.87.23-10.77,5.54-12.08,37.79-9.29,64.46,26.26,64.46,26.26-23.45-13.96-49.5-11.71-61.02-9.72ZM-1847.43,2461.54c-4.07-4.79-8.89-8.67-14.33-11.53-5.79-3.04-12.36-4.87-19.02-5.3-.94-.06-1.91-.09-2.87-.1h-.06c-2.79,0-5.41,1.09-7.39,3.08-.04.04-.08.09-.12.13-.25-.77-.39-1.58-.39-2.43-.02-4.41,3.54-8.07,7.95-8.04.9,0,1.81.04,2.72.09,6.26.4,12.42,2.08,17.98,5,5.17,2.72,9.78,6.46,13.56,10.91,3.63,4.28,6.51,9.2,8.44,14.48.97,2.65,1.68,5.39,2.13,8.17-2.02-5.27-4.9-10.14-8.59-14.48ZM-1860.16,2417.52c-2.72-2.52-3.51-6.5-1.92-9.85h0c2.35-4.94,8.69-6.36,12.96-2.94,30.35,24.35,18.35,67.15,18.35,67.15-3.17-27.11-20.8-46.42-29.38-54.35Z"/>
      <text class="st14" transform="translate(-2073.84 2653.64)"><tspan x="0" y="0">VS TECH</tspan></text>
      <text class="st13" transform="translate(-2003.13 2702.2)"><tspan x="0" y="0">WAVES</tspan></text>
      <text class="st4" transform="translate(-3087.39 602.2)"><tspan x="0" y="0">VS TECH WAVES</tspan></text>
      <text class="st4" transform="translate(-858.71 2463.95)"><tspan x="0" y="0">VS TECH WAVES</tspan></text>
      <g>
        <path class="st74" d="M-652.22,1435.53c-.2-.22-.24-.55-.09-.8,2.72-4.67,7.21-8.46,12.58-10.7,2.77-1.16,5.78-1.87,8.87-2.12,3.09-.24,6.27.03,9.33.77,6.16,1.48,11.71,5.1,15.63,9.81,3.98,4.7,6.55,10.22,8.21,15.82.83,2.81,1.36,5.68,1.59,8.56.11,1.44.16,2.88.13,4.31-.02.72-.03,1.43-.08,2.14-.06.72-.12,1.44-.2,2.16-.37,2.87-1.06,5.7-2.06,8.39-1,2.69-2.34,5.24-3.93,7.59-1.6,2.35-3.5,4.47-5.6,6.33-1.07.91-2.16,1.79-3.34,2.55-.57.4-1.18.74-1.78,1.1-.62.32-1.22.67-1.86.95-1.25.61-2.56,1.08-3.87,1.5-1.33.37-2.66.71-4.02.88-.67.11-1.35.14-2.01.2-.01,0-.03,0-.04,0-.67.01-1.34.06-2.01.02-1.13,0-2.26-.14-3.36-.32-.35-.06-.6-.38-.57-.74h0c.03-.34.32-.6.66-.61,2.33-.07,4.61-.41,6.77-1.12,1.18-.35,2.3-.84,3.4-1.35,1.08-.56,2.14-1.14,3.13-1.84,1.99-1.36,3.76-3,5.31-4.8,1.52-1.83,2.83-3.81,3.85-5.92,2.08-4.21,3.09-8.84,3.1-13.4,0-.57-.02-1.14-.04-1.71-.02-.58-.09-1.16-.13-1.73-.11-1.15-.28-2.29-.49-3.42-.42-2.25-1.07-4.44-1.93-6.52-1.7-4.18-4.47-7.79-7.69-10.54-1.59-1.39-3.27-2.62-5-3.69-1.73-1.07-3.51-2.03-5.4-2.77-3.75-1.53-7.94-2.27-12.43-2.01-1.12.07-2.26.17-3.41.36-1.15.18-2.32.42-3.49.73-2.23.55-4.46,1.37-6.8,2.3-.26.11-.57.04-.76-.17l-.18-.2Z"/>
        <path class="st33" d="M-596.54,1344.81c-.61-.14-1.05-.67-1.07-1.3-.3-10.63,1.41-21.33,4.37-31.59,1.1-3.59,2.34-7.14,3.74-10.62,2.83-7.03,6.43-13.86,10.56-20.26,1.43-2.13,2.85-4.28,4.39-6.35,1.84-2.63,4.04-5.08,6.06-7.59,59.98-68.98,172.81-58.75,222.25,17.38,4.39,6.76,8.22,13.89,11.41,21.3,16.82,39.23,14.31,86.49-10.64,121.25-.73.98-1.45,1.95-2.21,2.9-1.23,1.65-2.63,3.19-3.99,4.72-.42.47-1.1.6-1.66.31-.81-.3-1.29-1.16-.89-1.98,11.83-24.11,15.67-51.73,11.33-78.14-.21-1.11-.73-3.93-.93-5-.24-1.05-.88-3.87-1.13-4.96-.29-1.09-1.03-3.86-1.32-4.91-.32-1.03-1.18-3.79-1.51-4.85-22.98-70.12-101.49-105.87-169.72-78.53-1.84.67-4.4,1.87-6.23,2.63-2.05.95-4.05,1.98-6.08,2.96-31.63,16.5-55.76,46.86-64.76,81.69-.23.89-1.16,1.23-1.98.92Z"/>
        <path class="st9" d="M-519.47,1481.41c.07-.57.49-1.03,1.04-1.17,10.03-2.53,17.27-7.82,22.85-14.3.74-.8,1.4-1.71,2.09-2.54.32-.44,1.15-1.57,1.46-1.99.29-.44,1.08-1.6,1.38-2.04.5-.83,1.25-1.96,1.71-2.81l.82-1.42c2.11-3.85,3.88-7.89,5.36-12.04.34-.89.74-2.22,1.07-3.13.31-1.07.67-2.11.97-3.17.28-1.08.65-2.11.9-3.2,1.44-5.42,2.61-10.83,3.45-16.47,1.04-6.93,1.39-14.02.82-21.02-1.57-16.2-7.6-32.51-18.72-44.56-.66-.75-1.69-1.71-2.4-2.43-.45-.41-1.52-1.34-1.96-1.74-.45-.37-1.55-1.23-2.02-1.6-.46-.35-.93-.65-1.4-.99-.92-.69-1.91-1.23-2.88-1.85-1.98-1.12-4.02-2.17-6.17-2.93-1.6-.62-3.26-1.11-4.94-1.47-.56-.12-1.12-.28-1.69-.35l-1.72-.26c-.57-.11-1.15-.11-1.73-.17-.58-.03-1.16-.12-1.75-.12l-1.76-.03c-7.29.12-14.34,2.12-20.86,5.7-2.22,1.16-4.33,2.55-6.41,4.03-.92.67-2.17,1.63-3.03,2.35-1.17.68-2.36,2.9-3.84,1.69-.54-.48-.61-1.3-.17-1.87,8.15-10.55,20.01-18.75,33.46-20.92l2.16-.29c.72-.11,1.45-.12,2.18-.18.73-.04,1.46-.13,2.19-.11h2.2c.74-.01,1.47.08,2.2.12,2.21.15,4.41.45,6.58.93,2.91.58,5.74,1.52,8.51,2.59,2.05.86,4.06,1.81,6.01,2.88.67.4,2.22,1.29,2.87,1.69.59.39,2.16,1.44,2.76,1.84,1.04.79,2.54,1.85,3.51,2.68,13.57,11.12,22.46,26.97,27.34,43.62,1.62,5.54,2.91,11.17,3.84,16.88,4.39,24.11-.25,48.61-17.21,67.17-1.07,1.12-2.09,2.25-3.25,3.29-.57.53-1.12,1.06-1.7,1.57-.63.52-2.06,1.73-2.68,2.22-.91.67-1.9,1.42-2.81,2.06-1.32.84-2.58,1.72-3.96,2.45-8,4.56-17.46,6.91-26.54,5.52-2.58-.4-5.06-1.12-7.37-2.12-.57-.24-.91-.83-.84-1.44l.06-.53Z"/>
        <path class="st63" d="M-650.72,1435.54c-1.2.99-2.87-.47-2.05-1.79,3.66-5.96,8.58-11.45,14.19-15.92,8.1-6.38,17.77-10.71,27.99-12.46,1.01-.18,2.6-.39,3.65-.51,1.22-.09,2.4-.13,3.62-.18,26.14-.96,44.97,12.03,60.79,31.15,16.2,19.48,29.37,38.63,54.51,45.76,6.91,2.13,14.14,3.25,21.4,3.88,35.53,3.02,73.35-10.19,98.47-35.97,9.16-9.61,16.21-21.09,19.8-34.02.43-1.51,2.65-1.26,2.7.31.18,5.73-.44,11.57-1.8,17.28-1.24,5.38-3.17,10.59-5.51,15.59-.49.99-.97,2-1.5,2.98-19.61,36.32-61.02,58.32-101.74,60.43-3.99.18-7.95.16-11.94.05-9.28-.36-18.59-1.63-27.6-4.22-20.95-5.75-38.44-19.37-51.38-36.44-11.25-14.12-19.12-30.06-32.9-40.74-1.35-1.05-2.76-1.97-4.21-2.88-22.07-12.87-47.12-8.36-66.49,7.71Z"/>
        <path class="st56" d="M-197.25,1483.11c0,.55-.32,1.05-.82,1.27-19.95,8.57-41.64,11.57-63.56,9.3-33.6-3.32-65.12-21.14-88.83-44.84-8.78-8.68-16.97-18.3-24.35-28.07-19.84-25.87-31.76-49.83-50.87-72.65l-.83-.98c-1.59-1.83-3.29-3.69-4.98-5.33-3.13-3.21-6.53-6.15-10.09-8.72-6.3-4.55-13.29-7.86-20.87-10.14-.84-.24-1.68-.52-2.55-.74l-1.22-.33c-.5-.15-1.06-.48-1.55-.6-.33-.1-.71-.24-1.04-.37-1.38-.22-2.85-.42-4.24-.56l-2.49-.23c-.84-.06-1.67-.08-2.53-.14l-2.56-.03c-.86.02-1.73,0-2.61.04-.87.06-1.76.07-2.65.15-25.82,1.88-49.11,16.21-70.29,31.86-.44.32-1.03.35-1.5.08l-2.06-1.18c-.66-.37-.89-1.21-.53-1.87,16.39-30.05,43.95-56.01,78.43-62.63,3.4-.66,6.9-1.15,10.36-1.46,1.62-.08,3.29-.29,4.9-.21l1.96.05c1.83.07,3.84.19,5.65.33,113.73,10.36,98.56,170.85,233.03,191.71,9.03,1.45,18.18,2.24,27.33,2.53.75.02,1.34.63,1.34,1.37v2.38Z"/>
      </g>
      <g>
        <path class="st62" d="M622.41,1769.75c-7.52-5.22-16.21-7.35-24.66-6.39-.02,0-.04,0-.05,0-.37.04-.73.08-1.1.13-5.62.74-15.56,3.21-21.79,11.76-1.95,2.68-3.16,5.43-3.91,7.9,1.39-1.51,3.49-3.52,6.39-5.42,3.38-2.21,8.16-5.36,14.3-4.97,1.21.08,5.63.5,8.69,2.77,3.86,3.2,3.9,7.47.02,11.78-3,3.34-6.5,6.25-8.41,10.5-3.93,8.75,1.59,16.53,11.19,15.68,9.52-.85,16.69-7.96,17.7-17.55,1.79-16.94-13.16-30.75-29.94-27.66-1.37.25-2.78.34-4.16.5,10.05-4.74,23.49-1.47,31.96,7.76,13.07,14.25,10.97,35.79-4.61,47.35-23.67,17.56-54.33,6.85-62.03-21.6-6.6-24.39,2.86-43.32,20.36-59.3,14.61-13.34,37.08-22.07,61.82-18.27-8.72-5.97-17.26-9.97-26.55-12.19-33.7-8.03-69.33,6.82-87.48,36.32-23.07,37.51-12.5,84.79,25.03,107.66,33.24,20.26,70.12,10.9,90.19-19.82,14.42-22.08,8.62-51.97-12.96-66.95Z"/>
        <path class="st71" d="M605.82,1866.36c-18.64,7.27-37.66,8.15-56.46,1.65-29.54-10.21-49.77-29.62-59.7-58.09-6.51-18.66-5.97-37.61-1.2-56.55,1.21-4.81,2.66-9.56,3.88-14.37.43-1.69,1.24-3.79-.58-4.99-1.8-1.18-3.65.25-5.17,1.18-6.32,3.85-10.23,9.7-13.53,15.83-13.65,25.29-12.72,50.94-.84,76.38,11.22,24.02,29.77,41.4,55.51,51.39,33.68,13.07,73.46,6.77,97.32-21.75.61-.73,1.52-1.32,1.34-2.82-6.46,4.91-13.05,9.21-20.58,12.15Z"/>
        <path class="st54" d="M495.67,1807.44c4.76,17.5,15.1,31.61,29.95,42.34-4.05-6.04-8.4-11.87-11.83-18.34-16.56-31.23-11.75-70.4,11.58-96.92,11.89-13.52,26.5-22.62,43.16-28.88,2.11-.79,5.87-.98,5.52-3.61-.4-2.97-4.14-2.2-6.48-2.27-17.88-.54-32.84,6.92-45.48,18.61-26.28,24.31-35.93,54.14-26.41,89.07Z"/>
        <path class="st37" d="M560.33,1789.57c-2.97,8.83-.55,16.92,4.63,23.97,17.18,23.42,48.01,15.47,56.58-6.82-3.28,2.53-5.43,4.96-8.19,6.69-15.69,9.78-35.71,1.79-40.33-16.18-.63-2.46-1.1-4.96-1.74-7.41-.73-2.79-2.2-5-5.38-5.15-3.33-.16-4.69,2.29-5.57,4.91Z"/>
        <path class="st34" d="M603.05,1728.63c-5.68,1.59-10.06,3.89-12.97,5.68,4.2-.89,8.77-1.54,13.68-1.78,25.13-1.23,45.15,8.88,56.13,15.81-2.56-4.12-7.52-10.7-15.99-15.45-7.85-4.41-14.97-5.14-20.25-5.68-4.13-.42-11.53-1.11-20.61,1.42Z"/>
      </g>
      <text class="st6" transform="translate(918.88 2290.52)"><tspan x="0" y="0">VS TECH</tspan></text>
      <text class="st47" transform="translate(988.23 2400.53)"><tspan x="0" y="0">WAVES</tspan></text>
      <g>
        <path class="st20" d="M850.82,2258.47c-11.21-7.78-24.15-10.94-36.73-9.52-.03,0-.05,0-.08,0-.55.06-1.09.12-1.64.2-8.37,1.1-23.17,4.78-32.45,17.52-2.91,3.99-4.7,8.09-5.82,11.77,2.07-2.24,5.2-5.25,9.52-8.07,5.04-3.29,12.15-7.99,21.3-7.41,1.81.11,8.38.74,12.94,4.12,5.74,4.76,5.8,11.12.03,17.54-4.47,4.97-9.68,9.31-12.53,15.64-5.85,13.02,2.37,24.62,16.67,23.35,14.17-1.27,24.86-11.86,26.37-26.14,2.67-25.24-19.6-45.79-44.59-41.19-2.04.38-4.13.5-6.2.75,14.97-7.05,34.99-2.19,47.6,11.55,19.46,21.22,16.34,53.31-6.86,70.52-35.25,26.15-80.92,10.2-92.38-32.17-9.83-36.33,4.26-64.53,30.32-88.33,21.76-19.87,55.22-32.87,92.07-27.22-12.99-8.89-25.7-14.85-39.55-18.15-50.19-11.96-103.27,10.16-130.29,54.1-34.36,55.86-18.62,126.28,37.28,160.35,49.51,30.18,104.44,16.23,134.32-29.52,21.48-32.88,12.83-77.41-19.3-99.71Z"/>
        <path class="st38" d="M826.11,2402.37c-27.76,10.83-56.09,12.14-84.1,2.46-44-15.2-74.13-44.11-88.91-86.52-9.69-27.79-8.89-56.02-1.79-84.23,1.8-7.16,3.97-14.25,5.79-21.41.64-2.51,1.85-5.65-.86-7.43-2.68-1.76-5.43.37-7.69,1.75-9.42,5.74-15.23,14.45-20.16,23.58-20.33,37.67-18.95,75.87-1.25,113.76,16.71,35.77,44.34,61.67,82.68,76.54,50.17,19.47,109.41,10.08,144.95-32.4.91-1.08,2.27-1.96,1.99-4.2-9.62,7.31-19.44,13.71-30.66,18.09Z"/>
        <path class="st51" d="M662.05,2314.62c7.09,26.06,22.49,47.09,44.6,63.07-6.04-8.99-12.51-17.69-17.62-27.32-24.66-46.52-17.5-104.85,17.25-144.35,17.71-20.13,39.47-33.7,64.28-43.01,3.15-1.18,8.74-1.47,8.22-5.38-.59-4.43-6.17-3.28-9.66-3.38-26.63-.8-48.91,10.31-67.73,27.71-39.15,36.2-53.51,80.64-39.34,132.67Z"/>
        <path class="st72" d="M758.05,2287.99c-4.43,13.15-.82,25.2,6.89,35.71,25.58,34.87,71.51,23.03,84.27-10.16-4.88,3.77-8.08,7.39-12.2,9.96-23.37,14.57-53.18,2.67-60.07-24.09-.94-3.66-1.64-7.38-2.59-11.04-1.08-4.16-3.27-7.44-8.01-7.67-4.96-.24-6.98,3.42-8.29,7.31Z"/>
        <path class="st61" d="M821.98,2197.23c-8.46,2.36-14.99,5.8-19.31,8.47,6.25-1.32,13.06-2.29,20.37-2.65,37.43-1.84,67.24,13.22,83.6,23.55-3.82-6.14-11.2-15.94-23.81-23.02-11.7-6.57-22.3-7.66-30.16-8.47-6.15-.63-17.17-1.66-30.69,2.12Z"/>
      </g>
      <g>
        <path class="st67" d="M-425.8,2172.2c-11.21-7.78-24.15-10.94-36.73-9.52-.03,0-.05,0-.08,0-.55.06-1.09.12-1.64.2-8.37,1.1-23.17,4.78-32.45,17.52-2.91,3.99-4.7,8.09-5.82,11.77,2.07-2.24,5.2-5.25,9.52-8.07,5.04-3.29,12.15-7.99,21.3-7.41,1.81.11,8.38.74,12.94,4.12,5.74,4.76,5.8,11.12.03,17.54-4.47,4.97-9.68,9.31-12.53,15.64-5.85,13.02,2.37,24.62,16.67,23.35,14.17-1.27,24.86-11.86,26.37-26.14,2.67-25.24-19.6-45.79-44.59-41.19-2.04.38-4.13.5-6.2.75,14.97-7.05,34.99-2.19,47.6,11.55,19.46,21.22,16.34,53.31-6.86,70.52-35.25,26.15-80.92,10.2-92.38-32.17-9.83-36.33,4.26-64.53,30.32-88.33,21.76-19.87,55.22-32.87,92.07-27.22-12.99-8.89-25.7-14.85-39.55-18.15-50.19-11.96-103.27,10.16-130.29,54.1-34.36,55.86-18.62,126.28,37.28,160.35,49.51,30.18,104.44,16.23,134.32-29.52,21.48-32.88,12.83-77.41-19.3-99.71Z"/>
        <path class="st42" d="M-450.5,2316.1c-27.76,10.83-56.09,12.14-84.1,2.46-44-15.2-74.13-44.11-88.91-86.52-9.69-27.79-8.89-56.02-1.79-84.23,1.8-7.16,3.97-14.25,5.79-21.41.64-2.51,1.85-5.65-.86-7.43-2.68-1.76-5.43.37-7.69,1.75-9.42,5.74-15.23,14.45-20.16,23.58-20.33,37.67-18.95,75.87-1.25,113.76,16.71,35.77,44.34,61.67,82.68,76.54,50.17,19.47,109.41,10.08,144.95-32.4.91-1.08,2.27-1.96,1.99-4.2-9.62,7.31-19.44,13.71-30.66,18.09Z"/>
        <path class="st70" d="M-614.56,2228.35c7.09,26.06,22.49,47.09,44.6,63.07-6.04-8.99-12.51-17.69-17.62-27.32-24.66-46.52-17.5-104.85,17.25-144.35,17.71-20.13,39.47-33.7,64.28-43.01,3.15-1.18,8.74-1.47,8.22-5.38-.59-4.43-6.17-3.28-9.66-3.38-26.63-.8-48.91,10.31-67.73,27.71-39.15,36.2-53.51,80.64-39.34,132.67Z"/>
        <path class="st35" d="M-518.57,2201.72c-4.43,13.15-.82,25.2,6.89,35.71,25.58,34.87,71.51,23.03,84.27-10.16-4.88,3.77-8.08,7.39-12.2,9.96-23.37,14.57-53.18,2.67-60.07-24.09-.94-3.66-1.64-7.38-2.59-11.04-1.08-4.16-3.27-7.44-8.01-7.67-4.96-.24-6.98,3.42-8.29,7.31Z"/>
        <path class="st50" d="M-454.63,2110.96c-8.46,2.36-14.99,5.8-19.31,8.47,6.25-1.32,13.06-2.29,20.37-2.65,37.43-1.84,67.24,13.22,83.6,23.55-3.82-6.14-11.2-15.94-23.81-23.02-11.7-6.57-22.3-7.66-30.16-8.47-6.15-.63-17.17-1.66-30.69,2.12Z"/>
      </g>
      <g class="st45">
        <path class="st55" d="M-666.76,89.48c-7.76-5.39-16.71-7.57-25.43-6.59-.02,0-.04,0-.06,0-.38.04-.76.08-1.13.14-5.8.76-16.04,3.31-22.46,12.13-2.01,2.76-3.25,5.6-4.03,8.15,1.43-1.55,3.6-3.63,6.59-5.59,3.49-2.28,8.41-5.53,14.74-5.13,1.25.08,5.8.51,8.96,2.86,3.97,3.3,4.02,7.7.02,12.14-3.1,3.44-6.7,6.44-8.67,10.83-4.05,9.02,1.64,17.05,11.54,16.16,9.81-.88,17.21-8.21,18.25-18.09,1.85-17.47-13.57-31.7-30.87-28.52-1.42.26-2.86.35-4.29.52,10.36-4.88,24.22-1.52,32.95,8,13.47,14.69,11.31,36.9-4.75,48.82-24.4,18.1-56.01,7.06-63.95-22.27-6.8-25.15,2.95-44.67,20.99-61.14,15.06-13.75,38.23-22.75,63.73-18.84-8.99-6.15-17.79-10.28-27.38-12.56-34.75-8.28-71.49,7.03-90.19,37.45-23.78,38.67-12.89,87.42,25.81,111,34.27,20.89,72.29,11.23,92.98-20.43,14.87-22.76,8.88-53.58-13.36-69.03Z"/>
        <path class="st27" d="M-683.86,189.09c-19.22,7.5-38.82,8.4-58.22,1.7-30.46-10.52-51.31-30.54-61.55-59.89-6.71-19.24-6.16-38.78-1.24-58.31,1.25-4.96,2.74-9.86,4-14.82.44-1.74,1.28-3.91-.59-5.14-1.85-1.22-3.76.26-5.33,1.21-6.52,3.97-10.54,10.01-13.95,16.32-14.08,26.08-13.12,52.52-.86,78.75,11.57,24.76,30.7,42.69,57.23,52.99,34.73,13.48,75.74,6.98,100.34-22.43.63-.75,1.57-1.36,1.38-2.91-6.66,5.06-13.45,9.49-21.22,12.52Z"/>
        <path class="st46" d="M-797.43,128.35c4.91,18.04,15.57,32.6,30.88,43.66-4.18-6.23-8.66-12.24-12.2-18.91-17.07-32.2-12.11-72.58,11.94-99.92,12.26-13.94,27.32-23.33,44.5-29.77,2.18-.82,6.05-1.01,5.69-3.73-.41-3.07-4.27-2.27-6.69-2.34-18.43-.55-33.86,7.13-46.89,19.18-27.1,25.06-37.04,55.82-27.23,91.84Z"/>
        <path class="st36" d="M-730.98,109.91c-3.06,9.1-.57,17.44,4.77,24.72,17.71,24.14,49.5,15.95,58.34-7.04-3.38,2.61-5.6,5.12-8.45,6.9-16.18,10.09-36.82,1.85-41.58-16.68-.65-2.53-1.14-5.11-1.79-7.64-.75-2.88-2.26-5.15-5.54-5.31-3.44-.17-4.83,2.37-5.74,5.06Z"/>
        <path class="st43" d="M-686.72,47.09c-5.86,1.64-10.38,4.01-13.37,5.86,4.33-.92,9.04-1.58,14.1-1.83,25.91-1.27,46.55,9.15,57.87,16.3-2.64-4.25-7.76-11.03-16.48-15.93-8.1-4.55-15.44-5.3-20.88-5.86-4.26-.44-11.89-1.15-21.24,1.47Z"/>
      </g>
      <g class="st18">
        <path class="st65" d="M333.36,162.72c-9.11-6.33-19.63-8.9-29.87-7.74-.02,0-.04,0-.07,0-.44.05-.89.09-1.33.16-6.81.89-18.85,3.89-26.39,14.24-2.36,3.24-3.82,6.58-4.73,9.57,1.68-1.82,4.23-4.27,7.75-6.56,4.1-2.68,9.88-6.49,17.32-6.02,1.47.09,6.81.6,10.53,3.35,4.67,3.87,4.72,9.05.03,14.26-3.64,4.04-7.87,7.57-10.19,12.72-4.76,10.59,1.93,20.02,13.55,18.99,11.53-1.03,20.21-9.64,21.44-21.25,2.17-20.52-15.94-37.24-36.26-33.5-1.66.31-3.36.41-5.04.61,12.17-5.74,28.45-1.78,38.71,9.4,15.83,17.26,13.29,43.35-5.58,57.35-28.66,21.27-65.8,8.3-75.12-26.16-7.99-29.54,3.46-52.47,24.66-71.83,17.69-16.16,44.9-26.73,74.87-22.13-10.56-7.23-20.9-12.08-32.16-14.76-40.82-9.73-83.98,8.26-105.95,43.99-27.94,45.43-15.14,102.69,30.32,130.4,40.26,24.54,84.93,13.2,109.23-24,17.47-26.74,10.43-62.95-15.69-81.09Z"/>
        <path class="st32" d="M313.27,279.74c-22.58,8.81-45.61,9.87-68.39,2-35.78-12.36-60.28-35.87-72.3-70.36-7.88-22.6-7.23-45.55-1.46-68.5,1.47-5.83,3.22-11.58,4.7-17.41.52-2.04,1.5-4.59-.7-6.04-2.18-1.43-4.42.3-6.26,1.43-7.66,4.67-12.38,11.75-16.39,19.17-16.53,30.63-15.41,61.7-1.01,92.51,13.59,29.09,36.06,50.15,67.24,62.24,40.8,15.83,88.97,8.19,117.87-26.35.74-.88,1.85-1.6,1.62-3.42-7.82,5.95-15.81,11.15-24.93,14.71Z"/>
        <path class="st29" d="M179.85,208.38c5.77,21.19,18.29,38.29,36.27,51.29-4.91-7.31-10.18-14.38-14.33-22.22-20.05-37.83-14.23-85.27,14.02-117.38,14.4-16.37,32.1-27.4,52.27-34.97,2.56-.96,7.11-1.19,6.69-4.38-.48-3.6-5.02-2.67-7.85-2.75-21.66-.65-39.78,8.38-55.08,22.53-31.83,29.44-43.51,65.57-31.99,107.89Z"/>
        <path class="st52" d="M257.92,186.73c-3.6,10.69-.67,20.49,5.6,29.04,20.8,28.36,58.15,18.73,68.53-8.27-3.97,3.06-6.57,6.01-9.93,8.1-19.01,11.85-43.25,2.17-48.85-19.59-.77-2.98-1.33-6.01-2.11-8.98-.88-3.38-2.66-6.05-6.51-6.24-4.04-.2-5.68,2.78-6.74,5.94Z"/>
        <path class="st49" d="M309.91,112.92c-6.88,1.92-12.19,4.72-15.71,6.88,5.08-1.08,10.62-1.86,16.57-2.15,30.44-1.49,54.68,10.75,67.98,19.15-3.1-4.99-9.11-12.96-19.36-18.72-9.51-5.34-18.14-6.23-24.53-6.88-5-.51-13.97-1.35-24.96,1.72Z"/>
      </g>
      <g>
        <path d="M261.07,2493.8c-.65-1.28-1.66-1.37-2.69-1.33-1.31.05-2.52.69-3.72,1.28-4.23,2.08-8.34,4.59-12.68,6.26-12.3,4.72-24.36,2.39-36.23-2.61-10.28-4.33-20.42-9.32-30.65-13.91-7.68-3.45-15.55-5.95-23.64-6.33-7.97-.37-15.3,1.49-21.91,5.75-7.65,4.93-12.3,11.75-14.38,14.86-4.65,6.92-7.37,13.82-8.93,18.6,1.02-2.15,2.57-5.16,4.68-8.48,2.74-4.29,10.13-15.86,21.61-20.84,8.26-3.58,17.35-3.57,26.9.18,9.57,3.75,18.56,9.42,27.63,14.87,10.79,6.48,21.66,12.58,33.47,14.7,10.37,1.86,20.35.32,29.67-6.61,4.18-3.1,7.96-6.9,10.51-12.57.52-1.16,1.02-2.46.33-3.82Z"/>
        <path d="M159.96,2496.11c-6.73-5.18-14.02-8.36-23.14-7.03-17.64,2.59-27.14,23.31-28.29,25.9,3.09-1.82,5.83-3.59,8.66-5.08,6.63-3.5,13.38-6.03,20.63-4.75,4.38.77,8.34,3.13,12.33,5.52,5.23,3.13,10.6,5.27,16.38,2.99,3.99-1.57,4.59-4.49,1.84-8.64-2.42-3.64-5.28-6.51-8.4-8.91Z"/>
        <path d="M207.49,2522.13c-2.71-2.71-5.72-4.73-8.66-6.93-7.56-5.66-9.83-9.02-31.44-21.69-2.85-1.67-6.09-3.48-10.51-4.89-4.56-1.45-8.46-1.86-11.13-1.97,2.31.68,5.83,1.9,9.94,4.1,5.14,2.76,8.47,6.23,21.99,18.49,6.82,6.18,13.51,12.71,21.24,16.72,2.39,1.24,4.86,2.33,7.48,1.9,1.11-.18,2.42-.46,2.72-2.3.29-1.72-.79-2.58-1.64-3.43Z"/>
        <path d="M245.15,2522.33c-.7-.31-1.4-.52-2.13-.64-.65-.1-1.13-.09-1.22-.09-17.57.05-26.55-2.48-26.55-2.48-2.53-.71-6.32-2.06-10.83-4.8.87,1.27,2.19,3.09,3.94,5.05,7.25,8.12,14.85,10.92,18.91,11.97,0,0,6.3,1.62,14.43-.51.98-.26,3.25-1.05,4.58-3.49,1.17-2.14.71-4.2-1.12-5.01Z"/>
        <path d="M176.33,2511.5c-1.05-1-2.62-2.56-4.49-4.62,2.37,5.12,4.59,9.15,6.3,12.06,5.06,8.63,6.83,9.39,7.9,8.92.5-.22,1.33-.91,1.48-1.96.16-1.16-.57-2.28-.94-2.82-3.5-5.14-10.24-11.58-10.24-11.58Z"/>
      </g>
      <path class="st44" d="M-780.24,874.88c1.99-3.09,4.2-6.4,6.4-9.27,22.72-32.22,49.64-41.71,64.62-44.13-8.82,2.42-16.1,6.61-22.05,12.13-16.77,13.03-35.74,41.27-58.44,101.96-.45,1.32-1.1,2.44-1.98,3.31v.22h0c-5.09,6.18-15-23.17-17.67-30.89l-24.27-67.98c-4.85-13.91-7.06-18.31-11.66-19.41-2.45-.66-5.53-.89-7.73-.89-1.57-.22-2.88-.87-3.1-1.76-.64-1.54.89-1.75,3.1-1.75,8.37.22,16.31,1.09,17.85,1.09,3.1,0,10.58-.44,21.2-.21,2.17.21,3.74.43,4.17,1.76.43,1.1-.22,1.76-2.21,1.76-2.64-.23-5.74,0-8.16.89-2.86,1.09-3.53,4.85.46,17.21l15.64,50.31c12.37-45.25,60.66-104.17,134.75-66.21-57.32-25.38-87.33,11.7-110.92,51.87h0Z"/>
      <text class="st3" transform="translate(-687.29 907.7)"><tspan x="0" y="0">TECH</tspan></text>
      <text class="st0" transform="translate(-651.33 938.48)"><tspan x="0" y="0" xml:space="preserve"> WAVES</tspan></text>
      <path class="st57" d="M-699.47,850.99v28.48h-2.25c-.73-5.46-2.03-9.82-3.92-13.05-1.88-3.24-4.56-5.81-8.05-7.71-3.48-1.9-7.08-2.85-10.81-2.85-4.21,0-7.69,1.29-10.44,3.86-2.75,2.57-4.13,5.5-4.13,8.77,0,2.51.87,4.8,2.61,6.86,2.51,3.04,8.48,7.08,17.91,12.14,7.69,4.13,12.94,7.3,15.76,9.5,2.81,2.21,4.98,4.81,6.5,7.8,1.52,3,2.28,6.13,2.28,9.41,0,6.23-2.42,11.61-7.26,16.12-4.84,4.51-11.06,6.77-18.67,6.77-2.39,0-4.64-.18-6.74-.55-1.26-.2-3.86-.94-7.8-2.22-3.95-1.28-6.45-1.91-7.5-1.91s-1.81.3-2.4.91c-.59.61-1.02,1.86-1.31,3.76h-2.25v-28.23h2.25c1.05,5.91,2.47,10.33,4.25,13.27,1.78,2.94,4.5,5.37,8.17,7.32,3.66,1.94,7.68,2.91,12.05,2.91,5.06,0,9.06-1.34,11.99-4.01,2.93-2.67,4.4-5.83,4.4-9.47,0-2.02-.56-4.07-1.67-6.13-1.11-2.06-2.84-3.99-5.19-5.77-1.58-1.21-5.89-3.79-12.93-7.74s-12.05-7.09-15.03-9.44c-2.98-2.35-5.23-4.94-6.77-7.77-1.54-2.83-2.31-5.95-2.31-9.35,0-5.91,2.27-11,6.8-15.27,4.53-4.27,10.3-6.41,17.31-6.41,4.37,0,9.01,1.07,13.9,3.22,2.27,1.01,3.87,1.52,4.8,1.52,1.05,0,1.91-.31,2.58-.94.67-.63,1.2-1.89,1.61-3.79h2.25Z"/>
      <g class="st69">
        <path class="st26" d="M-962.58,284.19c1.99-3.09,4.2-6.4,6.4-9.27,22.72-32.22,49.64-41.71,64.62-44.13-8.82,2.42-16.1,6.61-22.05,12.13-16.77,13.03-35.74,41.27-58.44,101.96-.45,1.32-1.1,2.44-1.98,3.31v.22h0c-5.09,6.18-15-23.17-17.67-30.89l-24.27-67.98c-4.85-13.91-7.06-18.31-11.66-19.41-2.45-.66-5.53-.89-7.73-.89-1.57-.22-2.88-.87-3.1-1.76-.64-1.54.89-1.75,3.1-1.75,8.37.22,16.31,1.09,17.85,1.09,3.1,0,10.58-.44,21.2-.21,2.17.21,3.74.43,4.17,1.76.43,1.1-.22,1.76-2.21,1.76-2.64-.23-5.74,0-8.16.89-2.86,1.09-3.53,4.85.46,17.21l15.64,50.31c12.37-45.25,60.66-104.17,134.75-66.21-57.32-25.38-87.33,11.7-110.92,51.87h0Z"/>
      </g>
      <text class="st23" transform="translate(-928.98 347.29)"><tspan x="0" y="0">S TECH</tspan></text>
      <text class="st1" transform="translate(-645.23 392.37)"><tspan x="0" y="0" xml:space="preserve"> WAVES</tspan></text>
      <g class="st30">
        <path class="st19" d="M-1761.9,89.48c-7.76-5.39-16.71-7.57-25.43-6.59-.02,0-.04,0-.06,0-.38.04-.76.08-1.13.14-5.8.76-16.04,3.31-22.46,12.13-2.01,2.76-3.25,5.6-4.03,8.15,1.43-1.55,3.6-3.63,6.59-5.59,3.49-2.28,8.41-5.53,14.74-5.13,1.25.08,5.8.51,8.96,2.86,3.97,3.3,4.02,7.7.02,12.14-3.1,3.44-6.7,6.44-8.67,10.83-4.05,9.02,1.64,17.05,11.54,16.16,9.81-.88,17.21-8.21,18.25-18.09,1.85-17.47-13.57-31.7-30.87-28.52-1.42.26-2.86.35-4.29.52,10.36-4.88,24.22-1.52,32.95,8,13.47,14.69,11.31,36.9-4.75,48.82-24.4,18.1-56.01,7.06-63.95-22.27-6.8-25.15,2.95-44.67,20.99-61.14,15.06-13.75,38.23-22.75,63.73-18.84-8.99-6.15-17.79-10.28-27.38-12.56-34.75-8.28-71.49,7.03-90.19,37.45-23.78,38.67-12.89,87.42,25.81,111,34.27,20.89,72.29,11.23,92.98-20.43,14.87-22.76,8.88-53.58-13.36-69.03Z"/>
        <path class="st12" d="M-1779,189.09c-19.22,7.5-38.82,8.4-58.22,1.7-30.46-10.52-51.31-30.54-61.55-59.89-6.71-19.24-6.16-38.78-1.24-58.31,1.25-4.96,2.74-9.86,4-14.82.44-1.74,1.28-3.91-.59-5.14-1.85-1.22-3.76.26-5.33,1.21-6.52,3.97-10.54,10.01-13.95,16.32-14.08,26.08-13.12,52.52-.86,78.75,11.57,24.76,30.7,42.69,57.23,52.99,34.73,13.48,75.74,6.98,100.34-22.43.63-.75,1.57-1.36,1.38-2.91-6.66,5.06-13.45,9.49-21.22,12.52Z"/>
        <path class="st31" d="M-1892.57,128.35c4.91,18.04,15.57,32.6,30.88,43.66-4.18-6.23-8.66-12.24-12.2-18.91-17.07-32.2-12.11-72.58,11.94-99.92,12.26-13.94,27.32-23.33,44.5-29.77,2.18-.82,6.05-1.01,5.69-3.73-.41-3.07-4.27-2.27-6.69-2.34-18.43-.55-33.86,7.13-46.89,19.18-27.1,25.06-37.04,55.82-27.23,91.84Z"/>
        <path class="st10" d="M-1826.11,109.91c-3.06,9.1-.57,17.44,4.77,24.72,17.71,24.14,49.5,15.95,58.34-7.04-3.38,2.61-5.6,5.12-8.45,6.9-16.18,10.09-36.82,1.85-41.58-16.68-.65-2.53-1.14-5.11-1.79-7.64-.75-2.88-2.26-5.15-5.54-5.31-3.44-.17-4.83,2.37-5.74,5.06Z"/>
        <path class="st28" d="M-1781.86,47.09c-5.86,1.64-10.38,4.01-13.37,5.86,4.33-.92,9.04-1.58,14.1-1.83,25.91-1.27,46.55,9.15,57.87,16.3-2.64-4.25-7.76-11.03-16.48-15.93-8.1-4.55-15.44-5.3-20.88-5.86-4.26-.44-11.89-1.15-21.24,1.47Z"/>
      </g>
      <g class="st25">
        <path class="st64" d="M-2057.71,284.19c1.99-3.09,4.2-6.4,6.4-9.27,22.72-32.22,49.64-41.71,64.62-44.13-8.82,2.42-16.1,6.61-22.05,12.13-16.77,13.03-35.74,41.27-58.44,101.96-.45,1.32-1.1,2.44-1.98,3.31v.22h0c-5.09,6.18-15-23.17-17.67-30.89l-24.27-67.98c-4.85-13.91-7.06-18.31-11.66-19.41-2.45-.66-5.53-.89-7.73-.89-1.57-.22-2.88-.87-3.1-1.76-.64-1.54.89-1.75,3.1-1.75,8.37.22,16.31,1.09,17.85,1.09,3.1,0,10.58-.44,21.2-.21,2.17.21,3.74.43,4.17,1.76.43,1.1-.22,1.76-2.21,1.76-2.64-.23-5.74,0-8.16.89-2.86,1.09-3.53,4.85.46,17.21l15.64,50.31c12.37-45.25,60.66-104.17,134.75-66.21-57.32-25.38-87.33,11.7-110.92,51.87h0Z"/>
      </g>
      <text class="st22" transform="translate(-2024.12 347.29)"><tspan x="0" y="0">S TECH</tspan></text>
      <text class="st2" transform="translate(-1740.36 392.37)"><tspan x="0" y="0" xml:space="preserve"> WAVES</tspan></text>
      <g class="st40">
        <path class="st24" d="M-2382.13,699.23v28.48h-2.25c-.73-5.46-2.03-9.82-3.92-13.05-1.88-3.24-4.56-5.81-8.05-7.71-3.48-1.9-7.08-2.85-10.81-2.85-4.21,0-7.69,1.29-10.44,3.86-2.75,2.57-4.13,5.5-4.13,8.77,0,2.51.87,4.8,2.61,6.86,2.51,3.04,8.48,7.08,17.91,12.14,7.69,4.13,12.94,7.3,15.76,9.5,2.81,2.21,4.98,4.81,6.5,7.8,1.52,3,2.28,6.13,2.28,9.41,0,6.23-2.42,11.61-7.26,16.12-4.84,4.51-11.06,6.77-18.67,6.77-2.39,0-4.64-.18-6.74-.55-1.26-.2-3.86-.94-7.8-2.22-3.95-1.28-6.45-1.91-7.5-1.91s-1.81.3-2.4.91c-.59.61-1.02,1.86-1.31,3.76h-2.25v-28.23h2.25c1.05,5.91,2.47,10.33,4.25,13.27,1.78,2.94,4.5,5.37,8.17,7.32,3.66,1.94,7.68,2.91,12.05,2.91,5.06,0,9.06-1.34,11.99-4.01,2.93-2.67,4.4-5.83,4.4-9.47,0-2.02-.56-4.07-1.67-6.13-1.11-2.06-2.84-3.99-5.19-5.77-1.58-1.21-5.89-3.79-12.93-7.74s-12.05-7.09-15.03-9.44c-2.98-2.35-5.23-4.94-6.77-7.77-1.54-2.83-2.31-5.95-2.31-9.35,0-5.91,2.27-11,6.8-15.27,4.53-4.27,10.3-6.41,17.31-6.41,4.37,0,9.01,1.07,13.9,3.22,2.27,1.01,3.87,1.52,4.8,1.52,1.05,0,1.91-.31,2.58-.94.67-.63,1.2-1.89,1.61-3.79h2.25Z"/>
      </g>
      <g>
        <path class="st68" d="M-2660.07,245.23c-.6,21.68-7.82,44.74-24.54,57.1-1.8,1.33-3.84,2.53-6.05,3.6,4.9-1.5,9.3-3.64,12.8-6.23,16.72-12.36,23.95-35.42,24.54-57.1.85-30.69.3-52.73,14.62-61.04-21.25,5.07-20.4,28.78-21.37,63.67Z"/>
        <path class="st68" d="M-2614,177.52c-21.41-32.71-79.68-24.03-77.07,45.77,2.54,68.19-35.28,66.48-49.96,59.53-7.72-3.66-31.67-25.88-9.21-60.82,0,0-41.7,46.26,5.94,78.94,17.39,11.93,41.66,8.29,54.25-1.01,16.72-12.36,23.95-35.42,24.54-57.1,1.05-38.01-.05-62.74,27.6-64.58,23.87-1.58,31.88,39.15,17.81,54.06,0,0,27.52-22.1,6.11-54.8Z"/>
      </g>
      <g>
        <path class="st73" d="M-2499.83-19.51c1.33,5.18-.37,10.09-.37,10.09,0,0-3.86-3.48-5.19-8.66-1.33-5.18.37-10.09.37-10.09,0,0,3.86,3.48,5.19,8.66Z"/>
        <path class="st41" d="M-2499.32-5.97s-5.56-3.16-7.97-8.43c-2.41-5.27-2.86-10.08-6.02-15.95-3.23-6-9.95-8.28-12.79-8.28-7.97,0-9.15,6.94-9.15,6.94,0,0,2.35-2.51,7.96-1.5,5.7,1.03,7.84,5.44,10,9.33,3.09,5.53,4.11,15.91,17.96,17.89Z"/>
        <path class="st39" d="M-2499.08-4.41s-11.78,2.47-20.68-13.02c-4.83-8.4-9.66-11.17-16.13-11.17s-11.29,3.82-11.65,8.7c-.32,4.31.82,7.9,4.73,9.71,3.91,1.81,8.38-.81,8.38-.81,0,0-5.93-.16-6.1-5.26-.13-1.67,1.73-4.53,5.56-3.77,5.56,1.11,7.2,12.08,16.53,16.94,9.49,4.94,19.36-1.32,19.36-1.32Z"/>
      </g>
      <g class="st17">
        <path class="st21" d="M-2596.27-344.19s-.17-.1-.49-.3c-.32-.2-.79-.51-1.43-.83-1.25-.67-3.18-1.51-5.7-2.19-2.52-.65-5.66-1.19-9.18-1.12-1.75.05-3.6.22-5.41.64l-.67.17c-.07.02-.31.07-.25.07l-.39.12c-.53.16-1.06.32-1.41.49-.77.3-1.71.79-2.54,1.28-3.35,2.09-6.44,5.37-8.45,9.58-2.03,4.18-3.18,9.1-3.11,14.19.13,5.09,1.44,10.28,3.89,15.06,2.45,4.78,6,9.13,10.23,12.85,4.26,3.69,9.12,6.83,14.26,9.37,5.12,2.58,10.46,4.68,15.8,6.29,5.34,1.59,10.61,2.99,15.69,3.99,5.08.99,9.95,1.85,14.47,2.44,4.52.6,8.7,1.09,12.42,1.47,3.72.32,6.97.67,9.66.85,5.39.43,8.47.67,8.47.67,0,0-.77.12-2.2.34-1.44.19-3.55.57-6.24.82-2.7.3-5.98.64-9.76.85-3.78.19-8.06.42-12.74.3-4.68-.06-9.78-.24-15.14-.89-5.36-.63-11.05-1.42-16.83-2.91-5.78-1.45-11.73-3.33-17.54-6.01-5.81-2.65-11.47-6.12-16.52-10.48-5.02-4.38-9.4-9.75-12.32-15.84-2.98-6.06-4.35-12.82-4.12-19.27.24-6.45,1.98-12.64,5.11-17.7,3.05-5.07,7.33-9.17,12.18-11.34,4.99-2.3,9.85-2.32,13.79-1.61,3.96.68,7.2,1.91,9.67,3.26,2.49,1.31,4.2,2.7,5.27,3.74.56.5.9.93,1.15,1.21.25.29.37.43.37.43Z"/>
        <path class="st66" d="M-2599.09-312.83s.52-.24,1.49-.69c.48-.22,1.08-.49,1.79-.81.65-.37,1.4-.79,2.24-1.27,1.65-.97,3.51-2.38,5.46-4.06,1.84-1.84,3.76-3.99,5.37-6.65,1.58-2.67,2.87-5.77,3.79-9.16.95-3.39,1.33-7.14,1.4-11,.02-3.87-.3-7.9-1.11-11.95-.83-4.03-1.85-8.13-3.37-12.1-2.84-7.99-6.95-15.6-11.3-22.45-1.08-1.72-2.28-3.33-3.34-4.99-1.16-1.59-2.3-3.15-3.4-4.67-2.31-2.97-4.5-5.81-6.66-8.33-1.04-1.3-2.14-2.45-3.14-3.6-1.01-1.14-1.93-2.26-2.86-3.25-1.87-2-3.49-3.75-4.83-5.18-2.76-2.81-4.29-4.53-4.29-4.53,0,0,2.02,1.05,5.47,3.06,1.72,1.02,3.74,2.36,6.04,3.93,2.25,1.64,4.84,3.45,7.44,5.71,1.3,1.13,2.71,2.26,4.08,3.52,1.34,1.3,2.73,2.64,4.16,4.02,1.35,1.46,2.74,2.97,4.15,4.5,1.34,1.61,2.72,3.25,4.06,4.98,2.61,3.5,5.23,7.22,7.44,11.29,2.32,4,4.25,8.34,5.9,12.79,1.64,4.46,2.78,9.13,3.51,13.79.76,4.66.84,9.4.43,13.93-.44,4.53-1.4,8.91-3.03,12.81-1.59,3.91-3.78,7.32-6.16,10.1-2.37,2.82-5.13,4.79-7.58,6.33-2.55,1.45-4.89,2.33-6.87,2.89-1,.26-1.89.47-2.65.63-.77.09-1.42.18-1.95.24-1.06.11-1.63.17-1.63.17Z"/>
        <path class="st66" d="M-2591.79-322.3s.1-.17.3-.49c.2-.32.51-.79.83-1.43.67-1.25,1.51-3.18,2.19-5.7.65-2.52,1.19-5.66,1.12-9.18-.05-1.75-.22-3.6-.64-5.41l-.17-.67c-.02-.07-.07-.32-.07-.25l-.12-.39c-.16-.53-.32-1.06-.49-1.41-.3-.77-.79-1.71-1.28-2.53-2.09-3.35-5.37-6.44-9.58-8.45-4.18-2.03-9.1-3.18-14.19-3.1-5.09.13-10.28,1.44-15.06,3.89-4.78,2.45-9.13,6-12.85,10.23-3.69,4.26-6.83,9.12-9.37,14.26-2.58,5.12-4.68,10.46-6.29,15.8-1.59,5.34-2.99,10.61-3.99,15.69-.99,5.08-1.85,9.95-2.44,14.47-.6,4.52-1.09,8.7-1.47,12.42-.32,3.72-.67,6.97-.85,9.66-.43,5.39-.67,8.47-.67,8.47,0,0-.12-.77-.34-2.2-.19-1.44-.57-3.55-.82-6.24-.3-2.7-.64-5.98-.85-9.76-.19-3.78-.42-8.06-.3-12.74.06-4.68.24-9.78.89-15.14.63-5.36,1.42-11.05,2.91-16.83,1.45-5.78,3.33-11.73,6.01-17.54,2.65-5.81,6.12-11.47,10.48-16.52,4.38-5.02,9.75-9.4,15.84-12.33,6.06-2.98,12.82-4.35,19.27-4.12,6.45.24,12.64,1.98,17.7,5.11,5.07,3.05,9.17,7.33,11.34,12.18,2.3,4.99,2.32,9.85,1.61,13.79-.68,3.96-1.91,7.2-3.26,9.67-1.31,2.49-2.7,4.2-3.74,5.27-.5.56-.93.9-1.21,1.15-.29.25-.43.37-.43.37Z"/>
        <path class="st66" d="M-2627.15-328.97s.14.58.42,1.65c.11.55.3,1.21.56,1.95.25.75.5,1.6.9,2.53.68,1.89,1.84,4.04,3.23,6.37,1.45,2.31,3.41,4.67,5.74,6.95,2.36,2.26,5.22,4.34,8.46,6.12,3.25,1.75,6.92,3.12,10.84,4.08,3.93.93,8.09,1.56,12.41,1.66,4.31.07,8.72,0,13.14-.64,2.21-.18,4.41-.65,6.62-.97,2.19-.45,4.38-.87,6.55-1.36,2.15-.59,4.31-1.04,6.42-1.65,2.1-.64,4.2-1.18,6.23-1.85,2.04-.67,4.04-1.33,6.01-1.97,1.96-.7,3.87-1.38,5.73-2.04,3.68-1.45,7.25-2.68,10.46-4.05,3.22-1.33,6.21-2.51,8.82-3.65,2.62-1.13,4.95-2.04,6.82-2.89,3.78-1.64,6.01-2.49,6.01-2.49,0,0-1.79,1.55-5.05,4.11-1.62,1.3-3.63,2.81-6.02,4.44-1.19.83-2.45,1.71-3.79,2.63-1.38.86-2.83,1.76-4.34,2.7-3,1.93-6.41,3.77-10.03,5.72-1.85.9-3.75,1.83-5.69,2.77-1.95.93-4.02,1.73-6.09,2.62-4.18,1.68-8.61,3.22-13.22,4.49-2.31.6-4.66,1.19-7.04,1.68-2.41.39-4.8.93-7.26,1.15-4.87.64-9.87.72-14.77.4-4.91-.29-9.74-1.31-14.25-2.78-4.51-1.49-8.69-3.58-12.26-6.11-3.57-2.54-6.49-5.53-8.75-8.56-2.28-3.01-3.88-6.1-4.91-8.93-1.03-2.83-1.61-5.38-1.82-7.5-.16-1.04-.2-2-.21-2.83-.04-.82-.02-1.5.03-2.06.08-1.11.12-1.7.12-1.7Z"/>
        <path class="st21" d="M-2584.67-357.19s-.22-.55-.64-1.58c-.19-.52-.46-1.15-.82-1.85-.35-.71-.72-1.51-1.24-2.38-.93-1.78-2.39-3.74-4.09-5.85-1.75-2.09-4.03-4.15-6.65-6.09-2.66-1.91-5.78-3.58-9.23-4.88-3.47-1.28-7.29-2.12-11.3-2.53-4.02-.38-8.23-.42-12.52.08-4.27.53-8.63,1.22-12.92,2.47-2.17.48-4.28,1.26-6.42,1.89-2.1.75-4.22,1.47-6.29,2.26-2.05.88-4.12,1.63-6.12,2.53-1.99.92-3.99,1.75-5.92,2.7-1.93.95-3.82,1.88-5.67,2.79-1.84.96-3.64,1.9-5.39,2.82-3.44,1.95-6.81,3.66-9.79,5.46-3.01,1.76-5.8,3.35-8.22,4.85-2.44,1.48-4.62,2.71-6.35,3.82-3.51,2.15-5.6,3.31-5.6,3.31,0,0,1.56-1.79,4.43-4.78,1.42-1.51,3.21-3.29,5.34-5.23,1.06-.98,2.19-2.03,3.38-3.13,1.24-1.04,2.55-2.14,3.92-3.28,2.7-2.33,5.83-4.63,9.14-7.06,1.71-1.15,3.46-2.33,5.25-3.54,1.81-1.19,3.74-2.27,5.67-3.44,3.91-2.25,8.08-4.39,12.47-6.29,2.21-.92,4.45-1.83,6.74-2.64,2.33-.72,4.62-1.59,7.03-2.15,4.74-1.31,9.67-2.09,14.57-2.45,4.9-.4,9.83-.06,14.5.77,4.67.85,9.1,2.34,12.99,4.34,3.89,2.02,7.2,4.58,9.85,7.26,2.68,2.67,4.69,5.5,6.1,8.16,1.42,2.66,2.34,5.11,2.84,7.17.31,1.01.48,1.95.6,2.77.15.81.23,1.49.26,2.04.08,1.11.12,1.7.12,1.7Z"/>
        <path class="st21" d="M-2609.31-312.83s.55.23,1.57.66c.5.24,1.14.49,1.89.73.75.25,1.58.56,2.56.81,1.92.6,4.33.96,7.03,1.25,2.72.24,5.78.08,9.01-.4,3.23-.53,6.61-1.56,9.97-3.07,3.36-1.55,6.65-3.65,9.78-6.2,3.11-2.58,6.12-5.52,8.79-8.91,2.65-3.4,5.24-6.97,7.39-10.88,1.19-1.87,2.14-3.92,3.2-5.87.95-2.02,1.94-4.02,2.85-6.05.83-2.07,1.76-4.07,2.54-6.12.75-2.06,1.59-4.06,2.28-6.09.69-2.03,1.37-4.03,2.04-5.98.62-1.98,1.23-3.92,1.82-5.81,1.05-3.82,2.22-7.4,3.06-10.79.88-3.37,1.73-6.47,2.39-9.24.68-2.77,1.35-5.18,1.79-7.19.96-4,1.62-6.3,1.62-6.3,0,0,.16,2.36.25,6.51.06,2.08.06,4.6-.08,7.48-.05,1.45-.11,2.99-.18,4.61-.14,1.62-.29,3.32-.45,5.09-.26,3.56-.85,7.39-1.47,11.45-.39,2.02-.8,4.09-1.21,6.21-.43,2.12-1.04,4.25-1.57,6.44-1.18,4.35-2.61,8.82-4.37,13.26-.91,2.21-1.86,4.44-2.9,6.64-1.14,2.16-2.14,4.39-3.45,6.49-2.42,4.28-5.36,8.32-8.57,12.04-3.18,3.75-6.91,7-10.8,9.71-3.9,2.71-8.09,4.78-12.25,6.12-4.18,1.33-8.33,1.86-12.1,1.83-3.78,0-7.2-.57-10.08-1.46-2.88-.88-5.27-1.96-7.08-3.06-.93-.49-1.72-1.04-2.38-1.54-.68-.47-1.22-.89-1.63-1.26-.84-.73-1.29-1.12-1.29-1.12Z"/>
        <path class="st58" d="M-2623.72-345.85c.82-.5,1.76-.99,2.54-1.28.35-.17.88-.34,1.41-.49l.39-.12c-.07,0,.18-.05.25-.07l.67-.17c1.81-.42,3.65-.59,5.41-.64,3.52-.07,6.66.47,9.18,1.12,2.52.68,4.45,1.52,5.7,2.19.64.32,1.11.64,1.43.83.32.2.49.3.49.3,0,0-.13-.15-.37-.43-.25-.29-.59-.72-1.15-1.21-1.07-1.03-2.78-2.43-5.27-3.74-2.47-1.35-5.71-2.58-9.67-3.26-3.95-.71-8.8-.69-13.79,1.61-4.85,2.17-9.13,6.27-12.18,11.34-3.13,5.06-4.87,11.25-5.11,17.7-.23,6.45,1.14,13.2,4.12,19.27,2.93,6.09,7.3,11.46,12.32,15.84,5.06,4.36,10.72,7.83,16.52,10.48,5.81,2.67,11.75,4.56,17.54,6.01,5.78,1.49,11.47,2.29,16.83,2.91,5.37.65,10.46.83,15.14.89,4.68.12,8.96-.11,12.74-.3,3.78-.21,7.07-.55,9.76-.85,2.7-.25,4.81-.63,6.24-.82,1.44-.22,2.2-.34,2.2-.34,0,0-3.08-.24-8.47-.67-2.69-.18-5.94-.53-9.66-.85-3.72-.38-7.9-.86-12.42-1.47-4.53-.59-9.39-1.45-14.47-2.44-5.09-.99-10.35-2.4-15.69-3.99-5.34-1.61-10.68-3.71-15.8-6.29-5.13-2.55-9.99-5.68-14.26-9.37-4.23-3.72-7.78-8.07-10.23-12.85-2.45-4.78-3.76-9.97-3.89-15.06-.08-5.09,1.08-10.01,3.11-14.19,2.01-4.21,5.11-7.49,8.45-9.58Z"/>
        <path class="st11" d="M-2612.75-417.82c.93.99,1.86,2.11,2.86,3.25,1,1.15,2.1,2.3,3.14,3.6,2.16,2.52,4.35,5.36,6.66,8.33,1.11,1.52,2.24,3.08,3.4,4.67,1.06,1.66,2.26,3.27,3.34,4.99,4.36,6.85,8.46,14.46,11.3,22.45,1.52,3.97,2.53,8.06,3.37,12.1.82,4.05,1.13,8.08,1.11,11.95-.06,3.86-.45,7.61-1.4,11-.92,3.39-2.21,6.49-3.79,9.16-1.61,2.66-3.53,4.81-5.37,6.65-1.95,1.69-3.81,3.1-5.46,4.06-.84.48-1.59.9-2.24,1.27-.7.32-1.3.59-1.79.81-.97.45-1.49.69-1.49.69,0,0,.57-.06,1.63-.17.53-.07,1.18-.15,1.95-.24.76-.16,1.65-.38,2.65-.63,1.98-.56,4.32-1.44,6.87-2.89,2.45-1.54,5.21-3.52,7.58-6.33,2.39-2.78,4.57-6.18,6.16-10.1,1.64-3.9,2.6-8.28,3.03-12.81.42-4.53.33-9.27-.43-13.93-.72-4.67-1.87-9.34-3.51-13.79-1.65-4.45-3.58-8.79-5.9-12.79-2.21-4.07-4.83-7.79-7.44-11.29-1.33-1.73-2.71-3.37-4.06-4.98-1.42-1.54-2.8-3.04-4.15-4.5-1.43-1.38-2.82-2.72-4.16-4.02-1.37-1.27-2.78-2.39-4.08-3.52-2.59-2.26-5.19-4.08-7.44-5.71-2.3-1.57-4.32-2.91-6.04-3.93-3.45-2.02-5.47-3.06-5.47-3.06,0,0,1.53,1.72,4.29,4.53,1.34,1.44,2.97,3.18,4.83,5.18Z"/>
        <path class="st53" d="M-2590.66-324.21c-.32.64-.64,1.11-.83,1.43-.2.32-.3.49-.3.49,0,0,.15-.13.43-.37.29-.25.72-.59,1.21-1.15,1.03-1.07,2.43-2.78,3.74-5.27,1.35-2.47,2.58-5.71,3.26-9.67.71-3.95.69-8.8-1.61-13.79-2.17-4.85-6.27-9.13-11.34-12.18-5.06-3.13-11.25-4.87-17.7-5.11-6.45-.23-13.2,1.14-19.27,4.12-6.09,2.93-11.46,7.3-15.84,12.33-4.36,5.06-7.83,10.72-10.48,16.52-2.67,5.81-4.56,11.75-6.01,17.54-1.49,5.78-2.29,11.47-2.91,16.83-.65,5.37-.83,10.46-.89,15.14-.12,4.68.11,8.96.3,12.74.21,3.78.55,7.07.85,9.76.25,2.7.63,4.81.82,6.24.22,1.44.34,2.2.34,2.2,0,0,.24-3.08.67-8.47.18-2.69.53-5.94.85-9.66.38-3.72.86-7.9,1.47-12.42.59-4.53,1.45-9.39,2.44-14.47.99-5.09,2.4-10.35,3.99-15.69,1.61-5.34,3.71-10.68,6.29-15.8,2.55-5.13,5.68-9.99,9.37-14.25,3.72-4.23,8.07-7.78,12.85-10.23,4.78-2.45,9.98-3.76,15.06-3.89,5.09-.08,10.01,1.08,14.19,3.11,4.21,2.01,7.49,5.11,9.58,8.45.5.82.99,1.76,1.28,2.54.17.35.34.88.49,1.41l.12.39c0-.07.05.18.07.25l.17.67c.42,1.81.59,3.65.64,5.41.07,3.52-.47,6.66-1.12,9.18-.68,2.52-1.52,4.45-2.19,5.7Z"/>
        <path class="st75" d="M-2539.65-306.11c-1.96.64-3.97,1.3-6.01,1.97-2.04.67-4.14,1.21-6.23,1.85-2.11.61-4.27,1.07-6.42,1.65-2.16.49-4.36.91-6.55,1.36-2.2.32-4.4.8-6.62.97-4.42.64-8.83.72-13.14.64-4.32-.1-8.48-.73-12.41-1.66-3.92-.97-7.58-2.33-10.84-4.08-3.23-1.77-6.09-3.86-8.46-6.12-2.33-2.29-4.29-4.64-5.74-6.95-1.39-2.33-2.56-4.48-3.23-6.37-.39-.93-.65-1.78-.9-2.53-.26-.74-.45-1.4-.56-1.95-.27-1.08-.42-1.65-.42-1.65,0,0-.04.59-.12,1.7-.05.55-.07,1.23-.03,2.06,0,.82.04,1.78.21,2.83.21,2.12.78,4.67,1.82,7.5,1.03,2.83,2.63,5.92,4.91,8.93,2.25,3.03,5.17,6.02,8.75,8.56,3.58,2.53,7.75,4.62,12.26,6.11,4.51,1.48,9.34,2.49,14.25,2.78,4.9.32,9.9.24,14.77-.4,2.46-.22,4.85-.77,7.26-1.15,2.38-.49,4.73-1.08,7.04-1.68,4.61-1.28,9.04-2.81,13.22-4.49,2.07-.89,4.14-1.69,6.09-2.62,1.94-.95,3.84-1.87,5.69-2.77,3.62-1.94,7.03-3.78,10.03-5.72,1.51-.94,2.96-1.85,4.34-2.7,1.33-.93,2.6-1.81,3.79-2.63,2.39-1.63,4.4-3.14,6.02-4.44,3.26-2.56,5.05-4.11,5.05-4.11,0,0-2.23.85-6.01,2.49-1.87.85-4.2,1.77-6.82,2.89-2.61,1.14-5.6,2.33-8.82,3.65-3.2,1.37-6.77,2.59-10.46,4.05-1.86.66-3.78,1.34-5.73,2.04Z"/>
        <path class="st60" d="M-2689.69-359.37c2.98-1.8,6.35-3.51,9.79-5.46,1.75-.92,3.55-1.86,5.39-2.82,1.85-.91,3.75-1.84,5.67-2.79,1.92-.95,3.93-1.77,5.92-2.7,2-.9,4.08-1.65,6.12-2.53,2.07-.79,4.19-1.51,6.29-2.26,2.14-.62,4.25-1.4,6.42-1.89,4.28-1.24,8.65-1.94,12.92-2.47,4.29-.5,8.5-.46,12.52-.08,4.02.41,7.84,1.26,11.3,2.54,3.45,1.3,6.57,2.97,9.23,4.88,2.62,1.94,4.9,4,6.65,6.09,1.7,2.11,3.16,4.08,4.09,5.85.52.87.89,1.67,1.24,2.38.36.7.64,1.33.82,1.85.42,1.03.64,1.58.64,1.58,0,0-.04-.59-.12-1.7-.03-.56-.11-1.23-.26-2.04-.12-.82-.29-1.76-.6-2.77-.5-2.07-1.43-4.51-2.84-7.17-1.41-2.66-3.42-5.49-6.1-8.16-2.65-2.68-5.96-5.24-9.85-7.26-3.89-2-8.32-3.49-12.99-4.34-4.67-.83-9.6-1.17-14.5-.77-4.9.37-9.83,1.14-14.57,2.45-2.41.56-4.69,1.43-7.03,2.15-2.29.82-4.53,1.72-6.74,2.64-4.38,1.91-8.56,4.04-12.47,6.29-1.92,1.17-3.86,2.25-5.67,3.44-1.79,1.21-3.54,2.39-5.25,3.54-3.31,2.43-6.43,4.73-9.14,7.06-1.37,1.14-2.67,2.24-3.92,3.28-1.19,1.1-2.32,2.15-3.38,3.13-2.14,1.94-3.92,3.72-5.34,5.23-2.87,2.99-4.43,4.78-4.43,4.78,0,0,2.09-1.15,5.6-3.31,1.73-1.1,3.91-2.34,6.35-3.82,2.43-1.49,5.22-3.09,8.22-4.85Z"/>
        <path class="st59" d="M-2587.25-309.79c-3.23.48-6.29.64-9.01.4-2.7-.29-5.11-.65-7.03-1.25-.98-.25-1.82-.55-2.56-.81-.75-.24-1.39-.49-1.89-.73-1.02-.43-1.57-.66-1.57-.66,0,0,.45.39,1.29,1.12.41.37.95.79,1.63,1.26.66.49,1.45,1.04,2.38,1.54,1.82,1.11,4.2,2.18,7.08,3.06,2.88.88,6.3,1.46,10.08,1.46,3.77.02,7.92-.51,12.1-1.83,4.17-1.34,8.35-3.41,12.25-6.12,3.89-2.71,7.61-5.96,10.8-9.71,3.2-3.72,6.14-7.76,8.57-12.04,1.3-2.1,2.3-4.33,3.45-6.49,1.04-2.2,1.99-4.43,2.9-6.64,1.75-4.45,3.19-8.91,4.37-13.26.53-2.19,1.14-4.32,1.57-6.44.41-2.12.82-4.19,1.21-6.21.62-4.06,1.21-7.89,1.47-11.45.16-1.77.31-3.47.45-5.09.06-1.62.12-3.16.18-4.61.14-2.88.14-5.4.08-7.48-.08-4.15-.25-6.51-.25-6.51,0,0-.66,2.3-1.62,6.3-.45,2.01-1.12,4.42-1.79,7.19-.66,2.77-1.51,5.87-2.39,9.24-.83,3.38-2,6.97-3.06,10.79-.59,1.89-1.2,3.82-1.82,5.81-.67,1.96-1.35,3.95-2.04,5.98-.69,2.03-1.52,4.03-2.28,6.09-.78,2.05-1.72,4.05-2.54,6.12-.91,2.02-1.9,4.03-2.85,6.05-1.07,1.95-2.01,4-3.2,5.87-2.15,3.91-4.74,7.48-7.39,10.88-2.67,3.39-5.68,6.33-8.79,8.91-3.13,2.55-6.43,4.65-9.78,6.2-3.36,1.52-6.75,2.55-9.97,3.07Z"/>
      </g>
    </g>
  </g>
</svg>